# xmcd
#
# Track frame offsets: 
#        150
#        8384
#        23066
#        35819
#        52005
#        53844
#        65080
#        71587
#        80812
#        116433
#        140680
#        149726
#        164404
#        177159
#
# Disc length: 2575 seconds
#
# Revision: 4
# Processed by: cddbd v1.5.2PL0 Copyright (c) Steve Scherf et al.
# Submitted via: ExactAudioCopyFreeDBPlugin 1.0
#
DISCID=ce0a0d0e
DTITLE=大都技研 - 押忍！番長サウンドトラック
DYEAR=2005
DGENRE=Soundtrack
TTITLE0=オープニング　～勝利への幕開け～
TTITLE1=轟けDREAM
TTITLE2=男の花道
TTITLE3=Distance
TTITLE4=乙女の一撃！　～パンチルーレット～
TTITLE5=特訓　～Long version～
TTITLE6=番長対決曲集　～はっけよい！おしりあい！～
TTITLE7=番長対決曲集　～スマッシュ！ドッジ向いてホイ！～
TTITLE8=押忍！メドレー　～裏番MIX～
TTITLE9=Distance　～Ballade Remix～
TTITLE10=またあした！！　～RB Long version～
TTITLE11=轟けDREAM　（instrumental）
TTITLE12=男の花道　（instrumental）
TTITLE13=Distance　（instrumental）
EXTD=YEAR: 2005
EXTT0=
EXTT1=
EXTT2=
EXTT3=
EXTT4=
EXTT5=
EXTT6=
EXTT7=
EXTT8=
EXTT9=
EXTT10=
EXTT11=
EXTT12=
EXTT13=
PLAYORDER=
